<svg width="24" height="24" viewBox="0 0 24 24" fill="none" xmlns="http://www.w3.org/2000/svg">
<path d="M9.80254 3.90149L5.45554 2.73674C5.05579 2.62949 4.64479 2.86724 4.53754 3.26699L0.0727941 19.929C-0.0344559 20.3295 0.203294 20.7405 0.603794 20.8485L4.95004 22.0132C5.34979 22.1205 5.76154 21.8827 5.86879 21.483L10.3335 4.82024C10.44 4.42049 10.203 4.00874 9.80254 3.90149ZM5.83504 18.7072C5.51329 19.908 4.28029 20.6197 3.07954 20.298C1.87879 19.9762 1.16704 18.7432 1.48879 17.5425C1.81054 16.3417 3.04354 15.6292 4.24429 15.9517C5.44504 16.2735 6.15679 17.5072 5.83504 18.7072ZM6.69679 15.4927L2.35054 14.328L4.67929 5.63474L9.02629 6.80024L6.69679 15.4927ZM14.2035 17.25C13.5818 17.25 13.0785 17.754 13.0785 18.375C13.0785 18.996 13.5818 19.5 14.2035 19.5C14.8245 19.5 15.3285 18.996 15.3285 18.375C15.3285 17.754 14.8245 17.25 14.2035 17.25ZM8.10829 7.32974L5.20954 6.55349L5.01604 7.27799L7.91404 8.05424L8.10829 7.32974ZM7.52479 9.50324L7.71979 8.77874L4.82179 8.00249L4.62754 8.72699L7.52479 9.50324ZM3.94129 17.0835C3.34129 16.9222 2.72404 17.2792 2.56354 17.8792C2.40229 18.48 2.75854 19.0965 3.35929 19.257C3.95929 19.4182 4.57654 19.062 4.73704 18.4612C4.89754 17.8612 4.54129 17.2447 3.94129 17.0835ZM22.4535 6.74999H19.4535V7.49999H22.4535V6.74999ZM22.4535 9.74999H19.4535V10.5H22.4535V9.74999ZM22.4535 8.24999H19.4535V8.99999H22.4535V8.24999ZM20.9535 17.25C20.3318 17.25 19.8285 17.754 19.8285 18.375C19.8285 18.996 20.3318 19.5 20.9535 19.5C21.5745 19.5 22.0785 18.996 22.0785 18.375C22.0785 17.754 21.5745 17.25 20.9535 17.25ZM23.2035 2.99999H18.7035C18.2888 2.99999 17.9535 3.33524 17.9535 3.74999V21C17.9535 21.414 18.2888 21.75 18.7035 21.75H23.2035C23.6175 21.75 23.9535 21.414 23.9535 21V3.74999C23.9535 3.33524 23.6168 2.99999 23.2035 2.99999ZM20.9535 20.625C19.7108 20.625 18.7035 19.617 18.7035 18.375C18.7035 17.1322 19.7108 16.125 20.9535 16.125C22.1955 16.125 23.2035 17.1322 23.2035 18.375C23.2035 19.617 22.1955 20.625 20.9535 20.625ZM23.2035 15H18.7035V5.99999H23.2035V15ZM15.7035 6.74999H12.7035V7.49999H15.7035V6.74999ZM15.7035 9.74999H12.7035V10.5H15.7035V9.74999ZM16.4535 2.99999H11.9535C11.5388 2.99999 11.2035 3.33524 11.2035 3.74999V21C11.2035 21.414 11.5388 21.75 11.9535 21.75H16.4535C16.8675 21.75 17.2035 21.414 17.2035 21V3.74999C17.2035 3.33524 16.8668 2.99999 16.4535 2.99999ZM14.2035 20.5785C12.9608 20.5785 11.9535 19.5705 11.9535 18.3285C11.9535 17.0857 12.9608 16.0785 14.2035 16.0785C15.4455 16.0785 16.4535 17.0857 16.4535 18.3285C16.4535 19.5705 15.4455 20.5785 14.2035 20.5785ZM16.4535 15H11.9535V5.99999H16.4535V15ZM15.7035 8.24999H12.7035V8.99999H15.7035V8.24999ZM4.23904 10.1752L7.13629 10.9515L7.33129 10.227L4.43329 9.45074L4.23904 10.1752Z" fill="#FF7A00"/>
</svg>
