<svg width="31" height="24" viewBox="0 0 31 24" fill="none" xmlns="http://www.w3.org/2000/svg">
<path d="M18.0784 15.0511C18.7188 14.3471 19.0727 13.429 19.0705 12.4773C19.0705 10.367 17.3693 8.65909 15.2727 8.65909C13.1761 8.65909 11.475 10.367 11.475 12.4773C11.475 13.4693 11.85 14.3693 12.467 15.0511C11.7277 15.5093 11.1102 16.1396 10.6674 16.8882C10.2245 17.6368 9.96942 18.4814 9.92386 19.35C9.92201 19.3869 9.9277 19.4239 9.94058 19.4586C9.95345 19.4932 9.97325 19.5249 9.99876 19.5517C10.0243 19.5785 10.055 19.5998 10.089 19.6144C10.123 19.6289 10.1596 19.6364 10.1966 19.6364H11.6932C11.8364 19.6364 11.9523 19.5239 11.9625 19.3807C12.092 17.6557 13.5307 16.2955 15.2761 16.2955C17.0216 16.2955 18.4602 17.6591 18.5898 19.3807C18.6 19.5239 18.7159 19.6364 18.8591 19.6364H20.3523C20.3893 19.6364 20.4259 19.6289 20.4599 19.6144C20.4939 19.5998 20.5246 19.5785 20.5501 19.5517C20.5756 19.5249 20.5954 19.4932 20.6083 19.4586C20.6212 19.4239 20.6269 19.3869 20.625 19.35C20.5295 17.533 19.5341 15.9511 18.0784 15.0511ZM15.2727 14.25C14.3011 14.25 13.5102 13.4557 13.5102 12.4773C13.5102 11.4989 14.3011 10.7045 15.2727 10.7045C16.2443 10.7045 17.0352 11.4989 17.0352 12.4773C17.0352 13.4557 16.2443 14.25 15.2727 14.25ZM29.4545 2.18182H24V0.272727C24 0.122727 23.8773 0 23.7273 0H21.8182C21.6682 0 21.5455 0.122727 21.5455 0.272727V2.18182H16.5V0.272727C16.5 0.122727 16.3773 0 16.2273 0H14.3182C14.1682 0 14.0455 0.122727 14.0455 0.272727V2.18182H9V0.272727C9 0.122727 8.87727 0 8.72727 0H6.81818C6.66818 0 6.54545 0.122727 6.54545 0.272727V2.18182H1.09091C0.4875 2.18182 0 2.66932 0 3.27273V22.9091C0 23.5125 0.4875 24 1.09091 24H29.4545C30.058 24 30.5455 23.5125 30.5455 22.9091V3.27273C30.5455 2.66932 30.058 2.18182 29.4545 2.18182ZM28.0909 21.5455H2.45455V4.63636H6.54545V6.54545C6.54545 6.69545 6.66818 6.81818 6.81818 6.81818H8.72727C8.87727 6.81818 9 6.69545 9 6.54545V4.63636H14.0455V6.54545C14.0455 6.69545 14.1682 6.81818 14.3182 6.81818H16.2273C16.3773 6.81818 16.5 6.69545 16.5 6.54545V4.63636H21.5455V6.54545C21.5455 6.69545 21.6682 6.81818 21.8182 6.81818H23.7273C23.8773 6.81818 24 6.69545 24 6.54545V4.63636H28.0909V21.5455Z" fill="#FF7A00"/>
</svg>
