<svg width="80" height="80" viewBox="0 0 80 80" fill="none" xmlns="http://www.w3.org/2000/svg">
<path d="M71.3532 20.2867L41.3532 6.95333C40.9266 6.76377 40.465 6.66582 39.9982 6.66582C39.5314 6.66582 39.0698 6.76377 38.6432 6.95333L8.64317 20.2867C8.5765 20.3167 8.52984 20.3667 8.46317 20.4033C8.36984 20.45 8.26984 20.48 8.18317 20.5367C8.10984 20.5867 8.05317 20.65 7.98317 20.7033C7.73951 20.8844 7.5258 21.1026 7.34984 21.35C7.28317 21.4433 7.21317 21.5267 7.15317 21.62C7.05396 21.7962 6.96924 21.9801 6.89984 22.17C6.86984 22.26 6.82317 22.3433 6.7965 22.4333C6.71279 22.7261 6.66906 23.0288 6.6665 23.3333V56.6667C6.6665 57.9867 7.43984 59.1767 8.6465 59.7133L38.6465 73.0467C39.0798 73.24 39.5398 73.3333 39.9998 73.3333C40.464 73.3214 40.9204 73.2124 41.3398 73.0133L41.3532 73.0467L71.3532 59.7133C71.9428 59.4518 72.4438 59.0247 72.7953 58.4838C73.1468 57.943 73.3337 57.3117 73.3332 56.6667V23.3333C73.3337 22.6883 73.1468 22.057 72.7953 21.5161C72.4438 20.9753 71.9428 20.5482 71.3532 20.2867ZM39.9998 13.65L61.7932 23.3333L39.9998 33.0167L35.6398 31.08L18.2098 23.3333L39.9998 13.65ZM43.3332 64.87V38.8333L66.6665 28.4633V54.5033L43.3332 64.87Z" fill="white"/>
</svg>
