<svg width="80" height="80" viewBox="0 0 80 80" fill="none" xmlns="http://www.w3.org/2000/svg">
<path d="M42.5 62.345H35V66.25L27.5 67.5V70H49.845V67.655L42.5 66.25V62.345V62.345ZM67.5 10H10C7.2375 10 5 12.2375 5 15V50C5 52.76 7.2375 55 10 55H67.5C70.2625 55 72.5 52.76 72.5 50V15C72.5 12.2375 70.2625 10 67.5 10ZM38.4375 51.25C37.0575 51.25 35.9375 50.13 35.9375 48.75C35.9375 47.3675 37.0575 46.25 38.4375 46.25C39.82 46.25 40.9375 47.3675 40.9375 48.75C40.9375 50.13 39.8175 51.25 38.4375 51.25ZM67.5 42.5H10V15H67.5V42.5Z" fill="white"/>
</svg>
