<svg width="60" height="60" viewBox="0 0 60 60" fill="none" xmlns="http://www.w3.org/2000/svg">
<path d="M31.875 46.7588H26.25V49.6875L20.625 50.625V52.5H37.3838V50.7412L31.875 49.6875V46.7588ZM50.625 7.5H7.5C5.42812 7.5 3.75 9.17812 3.75 11.25V37.5C3.75 39.57 5.42812 41.25 7.5 41.25H50.625C52.6969 41.25 54.375 39.57 54.375 37.5V11.25C54.375 9.17812 52.6969 7.5 50.625 7.5ZM28.8281 38.4375C27.7931 38.4375 26.9531 37.5975 26.9531 36.5625C26.9531 35.5256 27.7931 34.6875 28.8281 34.6875C29.865 34.6875 30.7031 35.5256 30.7031 36.5625C30.7031 37.5975 29.8631 38.4375 28.8281 38.4375ZM50.625 31.875H7.5V11.25H50.625V31.875Z" fill="white"/>
</svg>
