<svg width="24" height="24" viewBox="0 0 24 24" fill="none" xmlns="http://www.w3.org/2000/svg">
<path d="M15.5949 4.20471H8.40492C6.08492 4.20471 4.20459 6.08538 4.20459 8.40505V15.595C4.20459 17.915 6.08526 19.7954 8.40526 19.7954H15.5946C17.9146 19.7954 19.7953 17.9147 19.7953 15.5947V8.40505C19.7953 6.08505 17.9146 4.20471 15.5946 4.20471H15.5949Z" stroke="#334948" stroke-width="2" stroke-miterlimit="10"/>
<path d="M12.0002 15.7634C14.0786 15.7634 15.7635 14.0785 15.7635 12C15.7635 9.9216 14.0786 8.23669 12.0002 8.23669C9.92172 8.23669 8.23682 9.9216 8.23682 12C8.23682 14.0785 9.92172 15.7634 12.0002 15.7634Z" stroke="#334948" stroke-width="2" stroke-miterlimit="10"/>
<path d="M16.5695 8.23669C17.0148 8.23669 17.3758 7.87568 17.3758 7.43036C17.3758 6.98503 17.0148 6.62402 16.5695 6.62402C16.1242 6.62402 15.7632 6.98503 15.7632 7.43036C15.7632 7.87568 16.1242 8.23669 16.5695 8.23669Z" fill="#334948"/>
</svg>
