<svg width="14" height="24" viewBox="0 0 14 24" fill="none" xmlns="http://www.w3.org/2000/svg">
<g clip-path="url(#clip0)">
<path d="M9.84688 7.71429C9.84688 7.94197 9.64619 8.14287 9.41875 8.14287C9.19131 8.14287 8.99062 7.94197 8.99062 7.71429C8.99062 6.79019 7.55908 6.42858 6.85 6.42858C6.62256 6.42858 6.42188 6.22769 6.42188 6.00001C6.42188 5.77233 6.62256 5.57144 6.85 5.57144C8.09424 5.57144 9.84688 6.22769 9.84688 7.71429ZM11.9875 7.71429C11.9875 5.03572 9.27158 3.42858 6.85 3.42858C4.42842 3.42858 1.7125 5.03572 1.7125 7.71429C1.7125 8.57144 2.06035 9.46876 2.62227 10.125C2.87646 10.4197 3.1708 10.7009 3.43838 11.0089C4.38828 12.1473 5.19102 13.4866 5.3248 15H8.3752C8.50898 13.4866 9.31172 12.1473 10.2616 11.0089C10.5292 10.7009 10.8235 10.4197 11.0777 10.125C11.6396 9.46876 11.9875 8.57144 11.9875 7.71429ZM13.7 7.71429C13.7 9.09376 13.2451 10.2857 12.322 11.3036C11.3988 12.3214 10.1813 13.7545 10.0743 15.1875C10.4623 15.4152 10.7031 15.8438 10.7031 16.2857C10.7031 16.6072 10.5827 16.9152 10.3687 17.1429C10.5827 17.3705 10.7031 17.6786 10.7031 18C10.7031 18.442 10.4757 18.8438 10.1011 19.0848C10.2081 19.2723 10.275 19.5 10.275 19.7143C10.275 20.5848 9.59268 21 8.8167 21C8.46885 21.7768 7.69287 22.2857 6.85 22.2857C6.00713 22.2857 5.23115 21.7768 4.8833 21C4.10732 21 3.425 20.5848 3.425 19.7143C3.425 19.5 3.49189 19.2723 3.59893 19.0848C3.22432 18.8438 2.99688 18.442 2.99688 18C2.99688 17.6786 3.11729 17.3705 3.33135 17.1429C3.11729 16.9152 2.99688 16.6072 2.99688 16.2857C2.99688 15.8438 3.2377 15.4152 3.62568 15.1875C3.51865 13.7545 2.30117 12.3214 1.37803 11.3036C0.454883 10.2857 0 9.09376 0 7.71429C0 4.07144 3.46514 1.71429 6.85 1.71429C10.2349 1.71429 13.7 4.07144 13.7 7.71429Z" fill="#FF7A00"/>
</g>
<defs>
<clipPath id="clip0">
<rect width="13.7" height="24" fill="white"/>
</clipPath>
</defs>
</svg>
