<svg width="28" height="28" viewBox="0 0 28 28" fill="none" xmlns="http://www.w3.org/2000/svg">
<path d="M17.5 1H0.875V17.625H10.5V26.8125H27.125V10.1875H17.5V1ZM8.11043 4.9375L5.36446 12.7742H7.21875L7.66533 11.5H10.5V15.875H2.625V2.75H15.75V10.1875H12.1041L10.2648 4.9375H8.11043ZM10.0965 9.75H8.27848L9.1875 7.15574L10.0965 9.75ZM25.375 11.9375V25.0625H12.25V11.9375H25.375Z" fill="#2D2D2D"/>
<path d="M17.3596 20.1513C17.5269 20.4201 17.7112 20.678 17.9113 20.9234C17.2769 21.2656 16.5565 21.4369 15.75 21.4375V23.1875C17.0702 23.1875 18.2498 22.8371 19.25 22.1581C20.2502 22.8371 21.4298 23.1875 22.75 23.1875V21.4375C21.9452 21.4375 21.2248 21.266 20.5888 20.9231C20.7888 20.6777 20.9731 20.42 21.1404 20.1513C21.6448 19.3313 22.0157 18.4364 22.2393 17.5H23.1875V15.75H20.125V14.4375H18.375V15.75H15.3125V17.5H16.2607C16.4843 18.4364 16.8552 19.3313 17.3596 20.1513ZM20.4274 17.5C20.2464 18.1056 19.9872 18.6851 19.6563 19.2237C19.5327 19.4224 19.397 19.6132 19.25 19.7951C19.1137 19.6266 18.9871 19.4504 18.871 19.2673C18.5267 18.7167 18.2581 18.1223 18.0724 17.5H20.4274Z" fill="#FF7A00"/>
</svg>
