<svg width="24" height="24" viewBox="0 0 24 24" fill="none" xmlns="http://www.w3.org/2000/svg">
<path d="M15.25 1H1V15.25H9.25V23.125H23.5V8.875H15.25V1ZM7.2018 4.375L4.84811 11.0922H6.4375L6.82028 10H9.25V13.75H2.5V2.5H13.75V8.875H10.6249L9.04844 4.375H7.2018ZM8.90416 8.5H7.34584L8.125 6.27634L8.90416 8.5ZM22 10.375V21.625H10.75V10.375H22Z" fill="#FF7A00"/>
<path d="M14.8796 17.2725C15.0231 17.5029 15.1811 17.724 15.3525 17.9344C14.8088 18.2276 14.1913 18.3745 13.5 18.375V19.875C14.6316 19.875 15.6427 19.5746 16.5 18.9926C17.3573 19.5746 18.3684 19.875 19.5 19.875V18.375C18.8102 18.375 18.1927 18.228 17.6475 17.934C17.819 17.7238 17.9769 17.5028 18.1204 17.2725C18.5527 16.5697 18.8706 15.8026 19.0623 15H19.875V13.5H17.25V12.375H15.75V13.5H13.125V15H13.9377C14.1294 15.8026 14.4473 16.5697 14.8796 17.2725ZM17.5092 15C17.354 15.5191 17.1319 16.0158 16.8483 16.4775C16.7423 16.6477 16.626 16.8113 16.5 16.9672C16.3831 16.8228 16.2747 16.6717 16.1752 16.5149C15.8801 16.0429 15.6498 15.5334 15.4906 15H17.5092Z" fill="#FF7A00"/>
</svg>
