<svg width="80" height="80" viewBox="0 0 80 80" fill="none" xmlns="http://www.w3.org/2000/svg">
<path d="M27.6529 64.925C31.4604 64.925 34.7529 63.5675 37.4279 60.8925C40.2354 58.085 41.6954 53.7575 41.3054 49.6575L62.7154 28.2475C64.1769 26.7829 64.9973 24.7981 64.9964 22.729C64.9955 20.6599 64.1733 18.6758 62.7104 17.2125C59.7654 14.2625 54.6254 14.2625 51.6804 17.2125L29.4704 39.4225C24.6879 39.845 19.9529 43.225 19.9529 49.22C19.9529 49.9775 20.0054 50.69 20.0579 51.37C20.2579 53.9475 20.3304 54.915 16.3804 56.89C15.9924 57.0846 15.6617 57.3768 15.4208 57.7379C15.1799 58.099 15.0371 58.5165 15.0063 58.9494C14.9755 59.3824 15.0579 59.8159 15.2453 60.2074C15.4328 60.5989 15.7188 60.935 16.0754 61.1825C16.3004 61.3325 21.5579 64.925 27.6529 64.925C27.6504 64.925 27.6504 64.925 27.6529 64.925ZM55.2154 20.745C55.7488 20.2333 56.4597 19.9479 57.1989 19.9489C57.9381 19.9498 58.6482 20.2369 59.1804 20.75C59.4404 21.01 59.6467 21.3187 59.7874 21.6584C59.9282 21.9981 60.0006 22.3623 60.0006 22.73C60.0006 23.0977 59.9282 23.4618 59.7874 23.8016C59.6467 24.1413 59.4404 24.45 59.1804 24.71L40.0004 43.89L36.0354 39.925L55.2154 20.745ZM25.0454 50.9825C25.0004 50.4225 24.9529 49.8375 24.9529 49.2175C24.9529 45.355 28.5654 44.335 30.4779 44.335C31.3679 44.335 32.2254 44.5175 32.8879 44.85C35.2504 46.0375 36.0379 48.0825 36.2804 49.59C36.7229 52.315 35.7379 55.51 33.8904 57.3575C32.1629 59.085 30.1229 59.925 27.6529 59.925H27.6504C25.7754 59.925 23.9529 59.435 22.4654 58.8575C25.1704 56.425 25.2679 53.885 25.0454 50.9825Z" fill="white"/>
</svg>
