<svg width="80" height="80" viewBox="0 0 80 80" fill="none" xmlns="http://www.w3.org/2000/svg">
<path d="M60.5263 35.2632V25.7895C60.5263 22.3063 57.6937 19.4737 54.2105 19.4737H44.7368C44.7368 14.2505 40.4863 10 35.2632 10C30.04 10 25.7895 14.2505 25.7895 19.4737H16.3158C12.8326 19.4737 10 22.3063 10 25.7895V38.4211H13.1579C14.8329 38.4211 16.4394 39.0865 17.6238 40.2709C18.8083 41.4553 19.4737 43.0618 19.4737 44.7368C19.4737 46.4119 18.8083 48.0183 17.6238 49.2028C16.4394 50.3872 14.8329 51.0526 13.1579 51.0526H10V63.6842C10 67.1674 12.8326 70 16.3158 70H28.9474V66.8421C28.9474 65.1671 29.6128 63.5606 30.7972 62.3762C31.9817 61.1917 33.5881 60.5263 35.2632 60.5263C36.9382 60.5263 38.5447 61.1917 39.7291 62.3762C40.9135 63.5606 41.5789 65.1671 41.5789 66.8421V70H54.2105C57.6937 70 60.5263 67.1674 60.5263 63.6842V54.2105C65.7495 54.2105 70 49.96 70 44.7368C70 39.5137 65.7495 35.2632 60.5263 35.2632Z" fill="white"/>
</svg>
