<svg width="80" height="80" viewBox="0 0 80 80" fill="none" xmlns="http://www.w3.org/2000/svg">
<path d="M53.6687 28.3104L70 41.8313L64.8435 46.0559L50.401 34.0853V70H43.0073V51.9721H35.7861V70H28.3924V30.1402C23.0061 28.8262 18.5941 26.3143 15.1565 22.6045C11.7188 18.8948 10 14.6933 10 10H17.3936C17.3936 14.1324 19.1699 17.6539 22.7225 20.5644C26.2751 23.4749 30.5733 24.9301 35.6174 24.9301H45.0721C48.0526 24.9301 50.9181 26.0569 53.6687 28.3104ZM32.0049 15.9162C32.0049 14.2256 32.7213 12.8174 34.154 11.6916C35.5868 10.5659 37.335 10.002 39.3985 10C41.4621 9.998 43.2103 10.5619 44.643 11.6916C46.0758 12.8214 46.7922 14.2296 46.7922 15.9162C46.7922 17.6028 46.0758 19.035 44.643 20.2128C43.2103 21.3907 41.4621 21.9776 39.3985 21.9736C37.335 21.9696 35.5868 21.3826 34.154 20.2128C32.7213 19.043 32.0049 17.6108 32.0049 15.9162Z" fill="white"/>
</svg>
