<svg width="24" height="24" viewBox="0 0 24 24" fill="none" xmlns="http://www.w3.org/2000/svg">
<g clip-path="url(#clip0)">
<path d="M17.487 17.14L13.422 13.444C13.2299 13.2693 12.9774 13.1762 12.7178 13.1842C12.4583 13.1922 12.212 13.3008 12.031 13.487L9.63804 15.948C9.06204 15.838 7.90404 15.477 6.71204 14.288C5.52004 13.095 5.15904 11.934 5.05204 11.362L7.51104 8.968C7.69745 8.78712 7.80617 8.54082 7.8142 8.2812C7.82223 8.02159 7.72892 7.76904 7.55404 7.57699L3.85904 3.51299C3.68408 3.32035 3.44092 3.2035 3.18119 3.18725C2.92146 3.17101 2.66564 3.25665 2.46804 3.42599L0.298038 5.28699C0.125149 5.46051 0.0219574 5.69145 0.00803782 5.93599C-0.00696218 6.18599 -0.292962 12.108 4.29904 16.702C8.30504 20.707 13.323 21 14.705 21C14.907 21 15.031 20.994 15.064 20.992C15.3086 20.9783 15.5394 20.8747 15.712 20.701L17.572 18.53C17.7421 18.333 17.8283 18.0774 17.8124 17.8177C17.7966 17.558 17.6798 17.3148 17.487 17.14Z" fill="white"/>
</g>
<defs>
<clipPath id="clip0">
<rect width="24" height="24" fill="white"/>
</clipPath>
</defs>
</svg>
