<svg width="30" height="30" viewBox="0 0 30 30" fill="none" xmlns="http://www.w3.org/2000/svg">
<path d="M26.9738 8.56878C27.1488 7.98753 26.9737 7.56128 26.1462 7.56128H23.405C22.7075 7.56128 22.3887 7.93003 22.2137 8.33503C22.2137 8.33503 20.82 11.7338 18.845 13.9375C18.2075 14.5788 17.9163 14.7813 17.5688 14.7813C17.395 14.7813 17.1425 14.5788 17.1425 13.9975V8.56878C17.1425 7.87128 16.9413 7.56128 16.36 7.56128H12.0525C11.6175 7.56128 11.355 7.88378 11.355 8.19128C11.355 8.85128 12.3425 9.00378 12.4437 10.8638V14.8988C12.4437 15.7825 12.285 15.9438 11.935 15.9438C11.0063 15.9438 8.74625 12.5325 7.405 8.62753C7.14375 7.86878 6.88 7.56253 6.18 7.56253H3.44C2.65625 7.56253 2.5 7.93128 2.5 8.33628C2.5 9.06378 3.42875 12.6638 6.82625 17.425C9.09125 20.6763 12.28 22.4388 15.185 22.4388C16.9262 22.4388 17.1413 22.0475 17.1413 21.3725V18.915C17.1413 18.1325 17.3075 17.975 17.8587 17.975C18.2637 17.975 18.9612 18.18 20.5875 19.7463C22.445 21.6038 22.7525 22.4375 23.7963 22.4375H26.5363C27.3188 22.4375 27.71 22.0463 27.485 21.2738C27.2388 20.505 26.3512 19.3863 25.1737 18.0625C24.5337 17.3075 23.5775 16.495 23.2862 16.0888C22.88 15.565 22.9975 15.3338 23.2862 14.8688C23.2875 14.87 26.6263 10.1675 26.9738 8.56878V8.56878Z" fill="white"/>
</svg>
