<svg width="24" height="24" fill="none" xmlns="http://www.w3.org/2000/svg"><path d="M9.803 3.901L5.456 2.737a.75.75 0 00-.918.53L.073 19.929c-.107.4.13.812.53.92l4.347 1.164a.75.75 0 00.919-.53L10.334 4.82a.751.751 0 00-.531-.919zM5.835 18.707a2.25 2.25 0 11-4.346-1.165 2.25 2.25 0 114.346 1.165zm.862-3.214L2.35 14.328l2.328-8.693L9.026 6.8l-2.33 8.693zm7.506 1.757a1.125 1.125 0 100 2.25 1.125 1.125 0 000-2.25zM8.108 7.33L5.21 6.553l-.194.725 2.898.776.194-.724zm-.583 2.173l.195-.724-2.898-.777-.194.725 2.897.776zm-3.584 7.58a1.125 1.125 0 10-.582 2.173 1.125 1.125 0 00.582-2.172zM22.453 6.75h-3v.75h3v-.75zm0 3h-3v.75h3v-.75zm0-1.5h-3V9h3v-.75zm-1.5 9a1.125 1.125 0 100 2.25 1.125 1.125 0 000-2.25zM23.203 3h-4.5a.75.75 0 00-.75.75V21c0 .414.336.75.75.75h4.5a.75.75 0 00.75-.75V3.75a.75.75 0 00-.75-.75zm-2.25 17.625a2.25 2.25 0 11.001-4.5 2.25 2.25 0 010 4.5zM23.203 15h-4.5V6h4.5v9zm-7.5-8.25h-3v.75h3v-.75zm0 3h-3v.75h3v-.75zm.75-6.75h-4.5a.75.75 0 00-.75.75V21c0 .414.336.75.75.75h4.5a.75.75 0 00.75-.75V3.75a.75.75 0 00-.75-.75zm-2.25 17.578a2.25 2.25 0 11.001-4.5 2.25 2.25 0 010 4.5zM16.453 15h-4.5V6h4.5v9zm-.75-6.75h-3V9h3v-.75zM4.24 10.175l2.897.776.195-.724-2.898-.776-.194.724z" fill="#FF7A00"/></svg>