<svg width="31" height="24" fill="none" xmlns="http://www.w3.org/2000/svg"><path d="M18.078 15.051a3.81 3.81 0 00.992-2.574c0-2.11-1.7-3.818-3.797-3.818-2.097 0-3.798 1.708-3.798 3.818 0 .992.375 1.892.992 2.574a5.39 5.39 0 00-2.543 4.299.273.273 0 00.273.286h1.496c.143 0 .26-.112.27-.255a3.334 3.334 0 013.313-3.085c1.746 0 3.184 1.363 3.314 3.085.01.143.126.255.27.255h1.492a.274.274 0 00.273-.286 5.388 5.388 0 00-2.547-4.299zm-2.805-.801a1.77 1.77 0 01-1.763-1.773 1.77 1.77 0 011.763-1.773 1.77 1.77 0 011.762 1.773 1.77 1.77 0 01-1.762 1.773zM29.454 2.182H24V.272A.274.274 0 0023.727 0h-1.909a.274.274 0 00-.273.273v1.909H16.5V.272A.274.274 0 0016.227 0h-1.909a.274.274 0 00-.272.273v1.909H9V.272A.274.274 0 008.727 0H6.818a.274.274 0 00-.273.273v1.909H1.091A1.09 1.09 0 000 3.272V22.91C0 23.513.487 24 1.09 24h28.364a1.09 1.09 0 001.091-1.09V3.272a1.09 1.09 0 00-1.09-1.091zm-1.363 19.364H2.455V4.636h4.09v1.91c0 .15.123.272.273.272h1.91c.15 0 .272-.123.272-.273V4.636h5.046v1.91c0 .15.122.272.272.272h1.91c.15 0 .272-.123.272-.273V4.636h5.046v1.91c0 .15.122.272.272.272h1.91c.15 0 .272-.123.272-.273V4.636h4.09v16.91z" fill="#FF7A00"/></svg>