<svg width="80" height="80" fill="none" xmlns="http://www.w3.org/2000/svg"><path d="M71.353 20.287l-30-13.334a3.337 3.337 0 00-2.71 0l-30 13.334c-.067.03-.113.08-.18.116-.093.047-.193.077-.28.134-.073.05-.13.113-.2.166a2.9 2.9 0 00-.633.647c-.067.093-.137.177-.197.27-.099.176-.184.36-.253.55-.03.09-.077.173-.104.263a3.377 3.377 0 00-.13.9v33.334c0 1.32.774 2.51 1.98 3.046l30 13.334c.434.193.894.286 1.354.286.464-.012.92-.12 1.34-.32l.013.034 30-13.334a3.33 3.33 0 001.98-3.046V23.333a3.33 3.33 0 00-1.98-3.046zM40 13.65l21.793 9.683L40 33.017l-4.36-1.937-17.43-7.747L40 13.65zm3.333 51.22V38.833l23.334-10.37v26.04L43.332 64.87z" fill="#fff"/></svg>