<svg width="14" height="24" fill="none" xmlns="http://www.w3.org/2000/svg"><g clip-path="url(#clip0)"><path d="M9.847 7.714a.44.44 0 01-.428.429.44.44 0 01-.428-.429c0-.924-1.432-1.285-2.141-1.285A.44.44 0 016.422 6c0-.228.2-.429.428-.429 1.244 0 2.997.657 2.997 2.143zm2.14 0c0-2.678-2.715-4.285-5.137-4.285-2.422 0-5.137 1.607-5.137 4.285 0 .857.347 1.755.91 2.411.253.295.548.576.815.884.95 1.138 1.753 2.478 1.887 3.991h3.05c.134-1.513.937-2.853 1.887-3.991.267-.308.561-.59.816-.884.562-.656.91-1.554.91-2.41zm1.713 0c0 1.38-.455 2.572-1.378 3.59-.923 1.017-2.14 2.45-2.248 3.883.388.228.63.657.63 1.099 0 .321-.121.63-.335.857.214.227.334.536.334.857 0 .442-.227.844-.602 1.085.107.187.174.415.174.63 0 .87-.682 1.285-1.458 1.285a2.17 2.17 0 01-1.967 1.286A2.17 2.17 0 014.883 21c-.776 0-1.458-.415-1.458-1.286 0-.214.067-.442.174-.63A1.287 1.287 0 012.997 18c0-.321.12-.63.334-.857a1.252 1.252 0 01-.334-.857c0-.442.24-.87.629-1.099-.107-1.432-1.325-2.866-2.248-3.883C.455 10.286 0 9.094 0 7.714c0-3.643 3.465-6 6.85-6s6.85 2.357 6.85 6z" fill="#FF7A00"/></g><defs><clipPath id="clip0"><path fill="#fff" d="M0 0h13.7v24H0z"/></clipPath></defs></svg>