<svg width="24" height="24" fill="none" xmlns="http://www.w3.org/2000/svg"><path d="M15.25 1H1v14.25h8.25v7.875H23.5V8.875h-8.25V1zM7.202 4.375l-2.354 6.717h1.59L6.82 10h2.43v3.75H2.5V2.5h11.25v6.375h-3.125l-1.577-4.5H7.202zM8.904 8.5H7.346l.779-2.224.78 2.224zM22 10.375v11.25H10.75v-11.25H22z" fill="#FF7A00"/><path d="M14.88 17.273c.143.23.301.451.472.661-.543.294-1.16.44-1.852.441v1.5c1.132 0 2.143-.3 3-.882.857.582 1.868.882 3 .882v-1.5c-.69 0-1.307-.147-1.852-.441.171-.21.329-.431.472-.662.433-.702.75-1.47.942-2.272h.813v-1.5H17.25v-1.125h-1.5V13.5h-2.625V15h.813c.191.803.51 1.57.942 2.273zM17.51 15a6.235 6.235 0 01-.662 1.477 4.9 4.9 0 01-.348.49 4.841 4.841 0 01-.325-.452A6.205 6.205 0 0115.491 15h2.018z" fill="#FF7A00"/></svg>