<svg width="80" height="80" fill="none" xmlns="http://www.w3.org/2000/svg"><path d="M27.653 64.925c3.807 0 7.1-1.357 9.775-4.032 2.807-2.808 4.267-7.136 3.877-11.236l21.41-21.41a7.808 7.808 0 00-.005-11.035c-2.945-2.95-8.085-2.95-11.03 0l-22.21 22.21c-4.782.423-9.517 3.803-9.517 9.798 0 .758.052 1.47.105 2.15.2 2.578.272 3.545-3.678 5.52a2.502 2.502 0 00-.305 4.292c.225.15 5.483 3.743 11.578 3.743-.003 0-.003 0 0 0zm27.562-44.18a2.86 2.86 0 013.965.005 2.8 2.8 0 010 3.96L40 43.89l-3.965-3.965 19.18-19.18zm-30.17 30.238a21.66 21.66 0 01-.092-1.765c0-3.863 3.612-4.883 5.525-4.883.89 0 1.747.182 2.41.515 2.362 1.188 3.15 3.233 3.392 4.74.443 2.725-.542 5.92-2.39 7.767-1.727 1.728-3.767 2.568-6.237 2.568h-.003c-1.875 0-3.697-.49-5.185-1.067 2.705-2.433 2.803-4.973 2.58-7.875z" fill="#fff"/></svg>