<svg width="80" height="80" fill="none" xmlns="http://www.w3.org/2000/svg"><path d="M53.669 28.31L70 41.831l-5.156 4.225L50.4 34.086V70h-7.394V51.972h-7.22V70h-7.395V30.14c-5.386-1.314-9.798-3.826-13.236-7.535C11.72 18.895 10 14.693 10 10h7.394c0 4.132 1.776 7.654 5.329 10.564 3.552 2.91 7.85 4.366 12.894 4.366h9.455c2.98 0 5.846 1.127 8.597 3.38zM32.005 15.916c0-1.69.716-3.099 2.149-4.224 1.433-1.126 3.181-1.69 5.244-1.692 2.064-.002 3.812.562 5.245 1.692 1.433 1.13 2.15 2.538 2.15 4.224 0 1.687-.717 3.119-2.15 4.297-1.433 1.178-3.18 1.765-5.245 1.76-2.063-.003-3.811-.59-5.244-1.76-1.433-1.17-2.15-2.602-2.15-4.297z" fill="#fff"/></svg>