<svg width="24" height="24" fill="none" xmlns="http://www.w3.org/2000/svg"><path fill-rule="evenodd" clip-rule="evenodd" d="M12.048 17.232h.96s.288-.048.432-.192c.144-.144.144-.432.144-.432s0-1.248.576-1.44c.576-.192 1.344 1.248 2.112 1.776.576.432 1.008.336 1.008.336l2.112-.048s1.104-.048.576-.96c-.048-.048-.288-.624-1.584-1.824-1.344-1.248-1.152-1.008.432-3.168.96-1.296 1.344-2.064 1.248-2.448-.096-.336-.816-.24-.816-.24h-2.4s-.192-.048-.288.048c-.144.096-.192.24-.192.24s-.384 1.008-.864 1.872c-1.056 1.776-1.488 1.872-1.632 1.776-.384-.24-.288-1.056-.288-1.584 0-1.728.288-2.448-.528-2.64-.24-.048-.432-.096-1.104-.096-.864 0-1.584 0-1.968.192-.288.144-.48.432-.336.432.144 0 .528.096.72.336.192.432.192 1.152.192 1.152s.144 2.064-.336 2.304c-.336.192-.768-.192-1.728-1.824-.48-.816-.864-1.776-.864-1.776s-.048-.192-.192-.288a1.3 1.3 0 00-.384-.144H4.8s-.336 0-.48.144c-.096.144 0 .384 0 .384s1.776 4.128 3.792 6.24c1.872 2.016 3.936 1.872 3.936 1.872z" fill="#334948"/></svg>